<svg width="504px" height="312px" viewBox="0 0 504 312" preserveAspectRatio="xMinYMin meet" xmlns="http://www.w3.org/2000/svg" xmlns:xlink="http://www.w3.org/1999/xlink" version="1.1"><style type="text/css"><![CDATA[@import url("https://fonts.googleapis.com/css2?family=Kosugi+Maru&display=swap");]]></style><defs><filter id="receiptlineinvert" x="0" y="0" width="100%" height="100%"><feFlood flood-color="#000"/><feComposite in="SourceGraphic" operator="xor"/></filter></defs><g font-family="'Kosugi Maru', 'MS Gothic', 'San Francisco', 'Osaka-Mono', monospace" fill="#000" font-size="24" dominant-baseline="text-after-edge" text-anchor="middle" xml:lang="ja"><g transform="translate(0,24)"><text x="6">&#xa0;</text></g><g transform="translate(0,48)"><text x="192,216,240,264,288,312">架空神宮球場</text></g><g transform="translate(0,72)"><text x="126,150,174,198,222,246,270,294,318,342,360,372,384">東京都新宿区霞ケ丘町3-1</text></g><g transform="translate(0,96)"><text x="114,126,138,150,168,186,198,216,234,246,264,282,300,318,330,342,354,366,378,390">2022年&#xa0;3月31日(火)&#xa0;01:30</text></g><g transform="translate(0,96)"><path d="M6,24v-6q0,-6,6,-6h480q6,0,6,6v6" fill="none" stroke="#000" stroke-width="2"/></g><g transform="translate(0,120)"><path d="M6,0v24m492,-24v24" fill="none" stroke="#000" stroke-width="2"/></g><g transform="translate(0,144)"><text transform="scale(2,1)" x="90,108,126,144,162">領&#xa0;収&#xa0;証</text></g><g transform="translate(0,144)"><path d="M6,0v6q0,6,6,6h480q6,0,6,-6v-6" fill="none" stroke="#000" stroke-width="2"/></g><g transform="translate(0,192)"><text x="12,36,60,78,96,120,144,162">ビール(税込み)</text><text x="366">2</text><text x="438,450,462,474,486,498">¥1,300</text></g><g transform="translate(0,216)"><text x="12,36,60,84,108,132,156,180,204,228,246,264,288,312,330">超豪華つば九朗コース(税込み)</text><text x="366">1</text><text x="438,450,462,474,486,498">¥5,000</text></g><g transform="translate(0,216)"><path d="M0,12h504" fill="none" stroke="#000" stroke-width="2"/></g><g transform="translate(0,264)"><text transform="scale(2,1)" x="12,36">合計</text><text transform="scale(2,1)" x="186,198,210,222,234,246">¥6,300</text></g><g transform="translate(0,288)"><text x="12,30,48">現&#xa0;金</text><text x="426,438,450,462,474,486,498">¥10,000</text></g><g transform="translate(0,312)"><text x="12,30,48,66,84">お&#xa0;釣&#xa0;り</text><text x="438,450,462,474,486,498">¥3,700</text></g></g></svg>
